<svg width="152" height="27" viewBox="0 0 152 27" fill="none"
  xmlns="http://www.w3.org/2000/svg">
  <path
    d="M2 24.0312V2.15625H13.375V6.53125H6.40625V10.9688H10.4375V15.375H6.40625V19.625H13.375V24.0312H2Z"
    fill="currentColor" />
  <path
    d="M15.0312 24.0312L19.2812 12.75L15.4062 2.15625H19.6875L21.4688 6.90625L23.25 2.15625H27.5312L23.6562 12.75L27.9062 24.0312H23.375L21.4688 18.8125L19.5625 24.0312H15.0312Z"
    fill="currentColor" />
  <path
    d="M29.5625 18.375V7.84375C29.5625 6.63542 30.0104 5.45833 30.9062 4.3125C32.0938 2.79167 33.6979 2.02083 35.7188 2V6.40625C34.8438 6.42708 34.2812 6.83333 34.0312 7.625C33.9896 7.70833 33.9688 7.78125 33.9688 7.84375V18.375C33.9688 18.7083 34.1458 19.0312 34.5 19.3438C34.8333 19.6354 35.2396 19.7812 35.7188 19.7812V24.1875C33.3854 24.1875 31.625 23.2083 30.4375 21.25C29.8542 20.25 29.5625 19.2917 29.5625 18.375ZM37.4062 24.1875V19.7812C37.4062 19.7812 37.6458 19.6875 38.125 19.5C38.4167 19.2917 38.6146 19.0729 38.7188 18.8438C38.8229 18.5729 38.875 18.1875 38.875 17.6875V17.3125L43.1875 18.3438C43.1875 20.1562 42.4583 21.6562 41 22.8438C39.8958 23.7396 38.6979 24.1875 37.4062 24.1875ZM37.4062 6.40625V2C38.9271 2 40.3021 2.66667 41.5312 4C42.6354 5.20833 43.1875 6.51042 43.1875 7.90625L38.875 9.03125V8.5625C38.875 8.04167 38.8229 7.65625 38.7188 7.40625C38.6354 7.19792 38.4792 7.01042 38.25 6.84375C38.0417 6.67708 37.8542 6.5625 37.6875 6.5L37.4062 6.40625Z"
    fill="currentColor" />
  <path
    d="M45.125 24.0312V2.15625H56.5V6.53125H49.5312V10.9688H53.5625V15.375H49.5312V19.625H56.5V24.0312H45.125Z"
    fill="currentColor" />
  <path d="M59 24.0312V2.15625H63.4062V19.6562H70.75V24.0312H59Z" fill="currentColor" />
  <path d="M72.7812 16.8438V12.875H82.6562V16.8438H72.7812Z" fill="currentColor" />
  <path
    d="M85.1562 24.0312V2.15625H89.5312V24.0312H85.1562ZM91.25 24.0312V20.1875H91.4062C92.6562 20.1875 93.4896 19.6667 93.9062 18.625C94.0521 18.2917 94.125 17.9479 94.125 17.5938C94.125 16.5521 93.7083 15.8021 92.875 15.3438C92.4583 15.1146 92 15 91.5 15H91.25V11.1875H91.5C92.6667 11.1875 93.4688 10.6875 93.9062 9.6875C94.0521 9.33333 94.125 8.96875 94.125 8.59375C94.125 7.57292 93.6979 6.82292 92.8438 6.34375C92.4062 6.11458 91.9271 6 91.4062 6H91.25V2.15625H92C94.7083 2.15625 96.6146 3.14583 97.7188 5.125C98.2396 6.08333 98.5 7.13542 98.5 8.28125C98.5 10.0938 97.9479 11.5625 96.8438 12.6875C96.6771 12.8333 96.5208 12.9688 96.375 13.0938C97.5833 13.9896 98.2812 15.3542 98.4688 17.1875C98.4896 17.4375 98.5 17.6771 98.5 17.9062C98.5 19.9271 97.7917 21.5104 96.375 22.6562C95.2083 23.5729 93.75 24.0312 92 24.0312H91.25Z"
    fill="currentColor" />
  <path
    d="M100.469 18V2.15625H104.875V18C104.896 18.8542 105.375 19.4167 106.312 19.6875C106.458 19.7292 106.562 19.75 106.625 19.75V24.1875C105.417 24.1875 104.208 23.7604 103 22.9062C101.333 21.6771 100.49 20.0417 100.469 18ZM108.312 24.1875V19.75C108.688 19.75 109.083 19.5729 109.5 19.2188C109.854 18.8854 110.042 18.4792 110.062 18V2.15625H114.438V18C114.438 20.3542 113.396 22.1146 111.312 23.2812C110.271 23.8854 109.271 24.1875 108.312 24.1875Z"
    fill="currentColor" />
  <path d="M116.781 24.0312V2.15625H121.188V24.0312H116.781Z" fill="currentColor" />
  <path d="M123.812 24.0312V2.15625H128.219V19.6562H135.562V24.0312H123.812Z" fill="currentColor" />
  <path
    d="M137.344 24.0312V2.15625H141.75V24.0312H137.344ZM143.438 24.0312V19.625C143.896 19.625 144.323 19.4375 144.719 19.0625C145.01 18.7292 145.167 18.3333 145.188 17.875V8.3125C145.188 7.89583 145.01 7.48958 144.656 7.09375C144.323 6.76042 143.917 6.58333 143.438 6.5625V2.15625C145.75 2.15625 147.5 3.1875 148.688 5.25C149.292 6.3125 149.594 7.33333 149.594 8.3125V17.875C149.594 20.25 148.542 22.0208 146.438 23.1875C145.396 23.75 144.396 24.0312 143.438 24.0312Z"
    fill="currentColor" />
</svg>