<svg width="173" height="19" viewBox="0 0 173 19" fill="none" xmlns="http://www.w3.org/2000/svg">
  <path
    d="M13.616 1.08C15.92 1.08 17.576 1.056 18.584 1.008C18.184 2.064 17.88 3.008 17.672 3.84C17.576 4.192 17.472 4.688 17.36 5.328H16.832C16.848 3.952 16.616 2.984 16.136 2.424C15.656 1.848 14.92 1.56 13.928 1.56H13.856C13.296 1.56 12.872 1.608 12.584 1.704C12.312 1.784 12.096 1.96 11.936 2.232C11.776 2.504 11.616 2.944 11.456 3.552L9.944 9.216H10.376C11.128 9.216 11.816 8.952 12.44 8.424C13.064 7.896 13.52 7.264 13.808 6.528H14.336C14.08 7.312 13.864 8.072 13.688 8.808L13.52 9.456C13.408 9.888 13.304 10.32 13.208 10.752C13.112 11.184 13.008 11.728 12.896 12.384H12.368C12.368 11.696 12.184 11.08 11.816 10.536C11.448 9.976 10.856 9.696 10.04 9.696H9.824L8.288 15.456C8.144 16.064 8.072 16.456 8.072 16.632C8.072 16.968 8.184 17.192 8.408 17.304C8.648 17.4 9.064 17.448 9.656 17.448H9.968C11.12 17.448 12.088 17.136 12.872 16.512C13.672 15.872 14.456 14.768 15.224 13.2H15.752C15.624 13.552 15.456 14.128 15.248 14.928C14.976 15.872 14.768 16.896 14.624 18C13.536 17.952 11.728 17.928 9.2 17.928C5.488 17.928 2.704 17.952 0.848 18L0.944 17.52C1.52 17.488 1.952 17.424 2.24 17.328C2.528 17.232 2.752 17.048 2.912 16.776C3.088 16.504 3.256 16.064 3.416 15.456L6.584 3.552C6.712 3.008 6.776 2.624 6.776 2.4C6.776 2.048 6.656 1.816 6.416 1.704C6.192 1.592 5.776 1.52 5.168 1.488L5.288 1.008C7.128 1.056 9.904 1.08 13.616 1.08ZM34.8973 0.671999C35.6813 0.671999 36.3053 0.935999 36.7693 1.464C37.2493 1.992 37.4893 2.656 37.4893 3.456C37.4893 4.288 37.2333 4.96 36.7213 5.472C36.2253 5.984 35.6093 6.24 34.8733 6.24C34.2653 6.24 33.7853 6.064 33.4333 5.712C33.0813 5.344 32.9053 4.848 32.9053 4.224C32.9053 3.504 33.1373 2.88 33.6013 2.352C34.0653 1.808 34.6653 1.448 35.4013 1.272C35.2733 1.144 35.0653 1.08 34.7773 1.08C34.2653 1.08 33.7373 1.28 33.1933 1.68C32.6493 2.144 32.0253 2.904 31.3213 3.96C30.6333 5 29.9613 6.256 29.3053 7.728L30.2413 15.48C30.3373 16.088 30.6733 16.392 31.2493 16.392C31.9053 16.392 32.3773 15.976 32.6653 15.144L33.0733 13.92H33.5533L32.9293 15.768C32.5933 16.68 32.1293 17.336 31.5373 17.736C30.9453 18.136 30.2093 18.336 29.3293 18.336C27.9533 18.336 26.9613 18.032 26.3533 17.424C25.7613 16.816 25.3853 15.872 25.2253 14.592L24.9613 12.456C24.3853 13.512 23.7533 14.496 23.0653 15.408C22.3773 16.304 21.7053 17.016 21.0493 17.544C20.3293 18.072 19.5773 18.336 18.7933 18.336C18.0093 18.336 17.3853 18.072 16.9212 17.544C16.4412 17.016 16.2012 16.352 16.2012 15.552C16.2012 14.72 16.4572 14.048 16.9692 13.536C17.4653 13.024 18.0813 12.768 18.8173 12.768C19.4253 12.768 19.9053 12.952 20.2573 13.32C20.6093 13.672 20.7853 14.16 20.7853 14.784C20.7853 15.504 20.5533 16.136 20.0893 16.68C19.6253 17.208 19.0253 17.56 18.2893 17.736C18.4173 17.864 18.6253 17.928 18.9133 17.928C19.3933 17.928 19.9373 17.728 20.5453 17.328C21.1373 16.896 21.8253 16.192 22.6093 15.216C23.3933 14.24 24.1453 13.072 24.8653 11.712L23.8333 3.408C23.7853 3.056 23.6813 2.808 23.5213 2.664C23.3773 2.52 23.1613 2.448 22.8733 2.448C22.2173 2.448 21.7293 2.92 21.4093 3.864L21.0013 5.088H20.5213L21.1453 3.24C21.4813 2.328 21.9693 1.672 22.6093 1.272C23.2653 0.871999 24.0813 0.671999 25.0573 0.671999C26.2893 0.671999 27.1933 0.967999 27.7693 1.56C28.3613 2.152 28.7373 3.104 28.8973 4.416L29.2093 6.912C29.7373 5.776 30.3133 4.728 30.9373 3.768C31.5613 2.792 32.1533 2.048 32.7133 1.536C33.4333 0.959999 34.1613 0.671999 34.8973 0.671999ZM54.1586 1.008C53.6306 2.384 53.1186 4.224 52.6226 6.528H52.0946C52.2546 5.68 52.3346 4.992 52.3346 4.464C52.3346 3.744 52.1986 3.16 51.9266 2.712C51.6226 2.2 51.2626 1.848 50.8466 1.656C50.4306 1.448 49.9106 1.344 49.2866 1.344C48.0386 1.344 46.8626 1.864 45.7586 2.904C44.6546 3.944 43.7746 5.336 43.1186 7.08C42.4626 8.824 42.1346 10.68 42.1346 12.648C42.1346 14.264 42.4066 15.464 42.9506 16.248C43.5106 17.032 44.2866 17.424 45.2786 17.424C45.8226 17.424 46.3746 17.304 46.9346 17.064C47.4946 16.808 47.9826 16.464 48.3986 16.032C48.8146 15.568 49.1746 15.064 49.4786 14.52C49.7986 13.96 50.1586 13.2 50.5586 12.24H51.0866C50.3346 15.008 49.8626 16.928 49.6706 18H49.1426C49.1906 17.664 49.2146 17.392 49.2146 17.184C49.2146 16.768 49.1106 16.56 48.9026 16.56C48.7746 16.56 48.6146 16.632 48.4226 16.776C46.9346 17.816 45.3346 18.336 43.6226 18.336C41.2386 18.336 39.4706 17.808 38.3186 16.752C37.1826 15.696 36.6146 14.176 36.6146 12.192C36.6146 10.272 37.1426 8.424 38.1986 6.648C39.2546 4.872 40.7106 3.432 42.5666 2.328C44.4386 1.224 46.5106 0.671999 48.7826 0.671999C49.6626 0.671999 50.3666 0.815999 50.8946 1.104C51.4386 1.376 51.9186 1.752 52.3346 2.232C52.4626 2.376 52.5746 2.448 52.6706 2.448C52.9906 2.448 53.3186 1.968 53.6546 1.008H54.1586ZM64.3348 1.08C66.6388 1.08 68.2948 1.056 69.3028 1.008C68.9028 2.064 68.5988 3.008 68.3908 3.84C68.2948 4.192 68.1908 4.688 68.0788 5.328H67.5508C67.5668 3.952 67.3348 2.984 66.8548 2.424C66.3748 1.848 65.6388 1.56 64.6468 1.56H64.5748C64.0148 1.56 63.5908 1.608 63.3028 1.704C63.0308 1.784 62.8148 1.96 62.6548 2.232C62.4948 2.504 62.3348 2.944 62.1748 3.552L60.6628 9.216H61.0948C61.8468 9.216 62.5348 8.952 63.1588 8.424C63.7828 7.896 64.2388 7.264 64.5268 6.528H65.0547C64.7988 7.312 64.5828 8.072 64.4068 8.808L64.2388 9.456C64.1268 9.888 64.0228 10.32 63.9268 10.752C63.8308 11.184 63.7268 11.728 63.6148 12.384H63.0868C63.0868 11.696 62.9028 11.08 62.5348 10.536C62.1668 9.976 61.5748 9.696 60.7588 9.696H60.5428L59.0068 15.456C58.8628 16.064 58.7908 16.456 58.7908 16.632C58.7908 16.968 58.9028 17.192 59.1268 17.304C59.3668 17.4 59.7828 17.448 60.3748 17.448H60.6868C61.8388 17.448 62.8068 17.136 63.5908 16.512C64.3908 15.872 65.1748 14.768 65.9427 13.2H66.4708C66.3428 13.552 66.1748 14.128 65.9668 14.928C65.6948 15.872 65.4868 16.896 65.3428 18C64.2548 17.952 62.4468 17.928 59.9188 17.928C56.2068 17.928 53.4228 17.952 51.5667 18L51.6627 17.52C52.2387 17.488 52.6707 17.424 52.9588 17.328C53.2468 17.232 53.4708 17.048 53.6308 16.776C53.8068 16.504 53.9748 16.064 54.1348 15.456L57.3028 3.552C57.4308 3.008 57.4948 2.624 57.4948 2.4C57.4948 2.048 57.3748 1.816 57.1348 1.704C56.9108 1.592 56.4948 1.52 55.8867 1.488L56.0068 1.008C57.8468 1.056 60.6228 1.08 64.3348 1.08ZM81.92 12.96C81.76 13.392 81.568 14.048 81.344 14.928C81.072 15.872 80.864 16.896 80.72 18C79.632 17.952 77.824 17.928 75.296 17.928C71.52 17.928 68.704 17.952 66.848 18L66.944 17.52C67.52 17.488 67.952 17.424 68.24 17.328C68.528 17.232 68.752 17.048 68.912 16.776C69.088 16.504 69.256 16.064 69.416 15.456L72.584 3.552C72.712 3.008 72.776 2.624 72.776 2.4C72.776 2.048 72.656 1.816 72.416 1.704C72.192 1.592 71.776 1.52 71.168 1.488L71.288 1.008C72.216 1.056 73.728 1.08 75.824 1.08C77.504 1.08 78.904 1.056 80.024 1.008L79.904 1.488C79.312 1.52 78.872 1.584 78.584 1.68C78.312 1.776 78.088 1.96 77.912 2.232C77.752 2.504 77.592 2.944 77.432 3.552L74.264 15.456C74.12 16.064 74.048 16.456 74.048 16.632C74.048 16.968 74.16 17.192 74.384 17.304C74.624 17.4 75.04 17.448 75.632 17.448H76.064C76.992 17.448 77.952 17.088 78.944 16.368C79.952 15.632 80.768 14.496 81.392 12.96H81.92ZM93.5405 9.336L92.8925 11.712H84.2285L84.8765 9.336H93.5405ZM104.102 9.12C105.43 9.104 106.574 9.248 107.534 9.552C108.494 9.856 109.222 10.288 109.718 10.848C110.23 11.392 110.486 12.016 110.486 12.72C110.486 14.4 109.742 15.704 108.254 16.632C106.782 17.544 104.726 18 102.086 18C101.622 18 101.23 17.992 100.91 17.976C99.9502 17.944 98.9262 17.928 97.8382 17.928C96.0142 17.928 94.5982 17.952 93.5902 18L93.6862 17.52C94.2622 17.488 94.6942 17.424 94.9822 17.328C95.2702 17.232 95.4942 17.048 95.6542 16.776C95.8302 16.504 95.9982 16.064 96.1582 15.456L99.3262 3.552C99.4702 2.976 99.5422 2.592 99.5422 2.4C99.5422 2.08 99.4222 1.856 99.1822 1.728C98.9422 1.584 98.5182 1.504 97.9102 1.488L98.0302 1.008C99.0062 1.056 100.398 1.08 102.206 1.08L104.486 1.056C104.79 1.04 105.222 1.032 105.782 1.032C109.654 1.032 111.59 2.112 111.59 4.272C111.59 5.136 111.294 5.928 110.702 6.648C110.126 7.368 109.27 7.952 108.134 8.4C106.998 8.832 105.654 9.072 104.102 9.12ZM105.542 1.488C105.206 1.488 104.95 1.6 104.774 1.824C104.614 2.048 104.446 2.504 104.27 3.192L102.734 8.976H103.094C103.894 8.976 104.582 8.72 105.158 8.208C105.734 7.696 106.166 7.024 106.454 6.192C106.742 5.36 106.886 4.472 106.886 3.528C106.886 2.888 106.79 2.392 106.598 2.04C106.406 1.672 106.054 1.488 105.542 1.488ZM101.798 17.448C102.47 17.448 103.078 17.2 103.622 16.704C104.182 16.192 104.614 15.536 104.918 14.736C105.238 13.92 105.398 13.088 105.398 12.24C105.398 11.392 105.214 10.704 104.846 10.176C104.494 9.648 103.91 9.384 103.094 9.384H102.638L101.03 15.456C100.902 15.904 100.838 16.264 100.838 16.536C100.838 17.144 101.158 17.448 101.798 17.448ZM127.405 5.712C127.549 5.136 127.669 4.608 127.765 4.128C127.877 3.648 127.933 3.272 127.933 3C127.933 2.52 127.797 2.176 127.525 1.968C127.253 1.744 126.765 1.584 126.061 1.488L126.205 1.008C126.829 1.056 127.717 1.08 128.869 1.08C129.717 1.08 130.389 1.056 130.885 1.008L130.741 1.488C130.213 1.6 129.797 1.776 129.493 2.016C129.205 2.24 128.957 2.592 128.749 3.072C128.541 3.552 128.309 4.272 128.053 5.232L126.565 11.016C125.989 13.224 125.205 14.92 124.213 16.104C123.621 16.792 122.893 17.336 122.029 17.736C121.181 18.136 120.269 18.336 119.293 18.336C117.901 18.336 116.757 18.136 115.861 17.736C114.981 17.32 114.349 16.76 113.965 16.056C113.629 15.448 113.461 14.736 113.461 13.92C113.461 13.2 113.613 12.256 113.917 11.088L115.909 3.552C116.037 3.008 116.101 2.624 116.101 2.4C116.101 2.048 115.981 1.816 115.741 1.704C115.517 1.592 115.101 1.52 114.493 1.488L114.637 1.008C115.565 1.056 117.077 1.08 119.173 1.08C120.837 1.08 122.237 1.056 123.373 1.008L123.229 1.488C122.637 1.52 122.197 1.584 121.909 1.68C121.637 1.776 121.413 1.96 121.237 2.232C121.077 2.504 120.917 2.944 120.757 3.552L118.645 11.496C118.245 13 118.045 14.208 118.045 15.12C118.045 16.704 118.613 17.496 119.749 17.496C121.429 17.496 122.749 16.952 123.709 15.864C124.685 14.776 125.429 13.248 125.941 11.28L127.405 5.712ZM134.921 15.456C134.777 16.064 134.705 16.456 134.705 16.632C134.705 16.968 134.817 17.192 135.041 17.304C135.281 17.416 135.713 17.488 136.337 17.52L136.241 18C135.217 17.952 133.721 17.928 131.753 17.928C129.865 17.928 128.449 17.952 127.505 18L127.625 17.52C128.185 17.488 128.601 17.424 128.873 17.328C129.161 17.232 129.385 17.048 129.545 16.776C129.721 16.488 129.889 16.048 130.049 15.456L133.217 3.552C133.345 3.008 133.409 2.624 133.409 2.4C133.409 2.048 133.289 1.816 133.049 1.704C132.825 1.592 132.409 1.52 131.801 1.488L131.921 1.008C132.817 1.056 134.233 1.08 136.169 1.08C137.977 1.08 139.481 1.056 140.681 1.008L140.561 1.488C139.969 1.52 139.529 1.584 139.241 1.68C138.969 1.776 138.745 1.96 138.569 2.232C138.409 2.504 138.249 2.944 138.089 3.552L134.921 15.456ZM152.678 12.96C152.518 13.392 152.326 14.048 152.102 14.928C151.83 15.872 151.622 16.896 151.478 18C150.39 17.952 148.582 17.928 146.054 17.928C142.278 17.928 139.462 17.952 137.606 18L137.702 17.52C138.278 17.488 138.71 17.424 138.998 17.328C139.286 17.232 139.51 17.048 139.67 16.776C139.846 16.504 140.014 16.064 140.174 15.456L143.342 3.552C143.47 3.008 143.534 2.624 143.534 2.4C143.534 2.048 143.414 1.816 143.174 1.704C142.95 1.592 142.534 1.52 141.926 1.488L142.046 1.008C142.974 1.056 144.486 1.08 146.582 1.08C148.262 1.08 149.662 1.056 150.782 1.008L150.662 1.488C150.07 1.52 149.63 1.584 149.342 1.68C149.07 1.776 148.846 1.96 148.67 2.232C148.51 2.504 148.35 2.944 148.19 3.552L145.022 15.456C144.878 16.064 144.806 16.456 144.806 16.632C144.806 16.968 144.918 17.192 145.142 17.304C145.382 17.4 145.798 17.448 146.39 17.448H146.822C147.75 17.448 148.71 17.088 149.702 16.368C150.71 15.632 151.526 14.496 152.15 12.96H152.678ZM172.554 7.032C172.554 8.76 172.138 10.464 171.306 12.144C170.474 13.824 169.146 15.224 167.322 16.344C165.498 17.448 163.194 18 160.41 18C159.978 18 159.618 17.992 159.33 17.976C158.434 17.944 157.53 17.928 156.618 17.928C154.858 17.928 153.498 17.952 152.538 18L152.61 17.52C153.154 17.488 153.562 17.424 153.834 17.328C154.122 17.232 154.346 17.048 154.506 16.776C154.682 16.488 154.85 16.048 155.01 15.456L158.154 3.552C158.25 3.184 158.298 2.872 158.298 2.616C158.298 2.264 158.178 2 157.938 1.824C157.714 1.632 157.322 1.52 156.762 1.488L156.834 1.008C157.65 1.056 158.89 1.08 160.554 1.08H161.442C162.786 1.032 163.97 1.008 164.994 1.008C167.394 1.008 169.25 1.52 170.562 2.544C171.89 3.552 172.554 5.048 172.554 7.032ZM160.602 17.568C162.01 17.568 163.242 16.984 164.298 15.816C165.37 14.648 166.186 13.184 166.746 11.424C167.322 9.648 167.61 7.896 167.61 6.168C167.61 3.016 166.594 1.44 164.562 1.44C164.21 1.44 163.954 1.488 163.794 1.584C163.634 1.68 163.514 1.84 163.434 2.064C163.354 2.288 163.218 2.768 163.026 3.504L159.882 15.504C159.69 16.24 159.594 16.72 159.594 16.944C159.594 17.184 159.666 17.352 159.81 17.448C159.954 17.528 160.218 17.568 160.602 17.568Z"
    fill="currentColor" />
</svg>